<?xml version="1.0" encoding="UTF-8"?>
<svg id="Layer_4" data-name="Layer 4" xmlns="http://www.w3.org/2000/svg" viewBox="0 0 2073.18 1234.31">
  <defs>
    <style>
      .cls-1 {
        fill: #387c57;
        stroke-width: 0px;
      }
    </style>
  </defs>
  <g>
    <path class="cls-1" d="M852.49,878.38c-12.34,0-22.67-1.75-31-5.25-8.34-3.5-12.5-10.42-12.5-20.75v-95c-6.34,6.34-14,11-23,14s-18.84,4.5-29.5,4.5c-18.34,0-35.5-4.59-51.5-13.75s-28.92-23.08-38.75-41.75c-9.84-18.66-14.75-42.16-14.75-70.5,0-32,6-59.16,18-81.5,12-22.33,28.16-39.41,48.5-51.25,20.33-11.83,42.83-17.75,67.5-17.75,10,0,20,.92,30,2.75,10,1.84,19.66,4.25,29,7.25,3.66-.66,7.16-1.25,10.5-1.75,3.33-.5,7-.75,11-.75h31.5c4,3.67,7,8.17,9,13.5,2,5.34,3,10.84,3,16.5-10,0-16,2.17-18,6.5-2,4.34-3,11.5-3,21.5v256c0,8,2.16,14.08,6.5,18.25,4.33,4.16,10.33,7.08,18,8.75v13.5c-6,5.33-13.67,9.5-23,12.5-9.34,3-21.84,4.5-37.5,4.5ZM790.99,732.38c3.66,0,7-.41,10-1.25,3-.83,5.66-1.91,8-3.25v-186c-6.34-4.33-14-6.5-23-6.5s-17.17,3-24.5,9c-7.34,6-13.17,16.09-17.5,30.25-4.34,14.17-6.5,33.59-6.5,58.25,0,34.34,5.16,59.5,15.5,75.5,10.33,16,23,24,38,24Z"/>
    <path class="cls-1" d="M1028.99,772.88c-23.34,0-41.5-7.16-54.5-21.5-13-14.33-19.5-33.66-19.5-58v-137.5c0-5.66-2.17-9.66-6.5-12-4.34-2.33-10.34-3.5-18-3.5v-22c4.33-3.66,13.41-7.58,27.25-11.75,13.83-4.16,29.41-6.25,46.75-6.25,13,0,21.58,1.5,25.75,4.5,4.16,3,6.25,10.34,6.25,22v168c0,10,1.66,17.67,5,23,3.33,5.34,9.16,8,17.5,8,7,0,13.75-2.16,20.25-6.5,6.5-4.33,11.91-9.33,16.25-15v-148.5c0-5.66-2.5-9.66-7.5-12-5-2.33-11.84-3.5-20.5-3.5v-22c4.66-3.66,13.83-7.58,27.5-11.75,13.66-4.16,29.83-6.25,48.5-6.25,13,0,21.83,1.5,26.5,4.5,4.66,3,7,10.34,7,22v184c0,8,2.08,14.67,6.25,20,4.16,5.34,10.08,8.34,17.75,9v14c-5.34,6.34-13.75,11.09-25.25,14.25s-22.59,4.75-33.25,4.75-20.59-2.92-28.75-8.75c-8.17-5.83-13.59-14.25-16.25-25.25-16.34,22.67-39.17,34-68.5,34Z"/>
    <path class="cls-1" d="M1232.98,769.38c-3.67-3.66-6.5-7.66-8.5-12-2-4.33-3-9.33-3-15,9.66,0,16.83-2.08,21.5-6.25,4.66-4.16,7-11.25,7-21.25v-145c0-8.66-2.09-15.16-6.25-19.5-4.17-4.33-13.09-6.5-26.75-6.5v-22c5-3,12.66-6.41,23-10.25,10.33-3.83,21.58-7.08,33.75-9.75,12.16-2.66,23.08-4,32.75-4,7.66,0,13.16,1.75,16.5,5.25,3.33,3.5,5,9.42,5,17.75v194.5c0,10,2.5,17,7.5,21s12.33,6,22,6c0,5.67-1,10.67-3,15-2,4.34-4.84,8.34-8.5,12h-113ZM1288.98,462.88c-14.34,0-25.75-4.25-34.25-12.75s-12.75-19.91-12.75-34.25,4.41-25.33,13.25-34c8.83-8.66,20.41-13,34.75-13s26.25,4.34,34.75,13c8.5,8.67,12.75,20,12.75,34s-4.42,25.75-13.25,34.25c-8.84,8.5-20.59,12.75-35.25,12.75Z"/>
    <path class="cls-1" d="M1390.48,769.38c-3.67-3.66-6.5-7.66-8.5-12-2-4.33-3-9.33-3-15,9.66,0,16.58-2.08,20.75-6.25s6.25-11.25,6.25-21.25v-144.5c0-8.66-2.34-14.91-7-18.75-4.67-3.83-13.34-5.75-26-5.75v-22.5c8-4.66,17.5-8.75,28.5-12.25s21.83-6.33,32.5-8.5c10.66-2.16,19-3.25,25-3.25,7.66,0,13.25,2.67,16.75,8,3.5,5.34,5.25,16.84,5.25,34.5,3.66-7,9.08-13.91,16.25-20.75,7.16-6.83,15.25-12.41,24.25-16.75,9-4.33,18.33-6.5,28-6.5,15.66,0,26.83,4,33.5,12,6.66,8,10,18.34,10,31,0,14.34-3.67,26-11,35-7.34,9-17.5,13.5-30.5,13.5-11.34,0-20.34-3.25-27-9.75-6.67-6.5-10-13.91-10-22.25,0-5.33.5-9.5,1.5-12.5-5.34,1.34-10.5,3.09-15.5,5.25-5,2.17-10,5.59-15,10.25v150c0,7.67,1.16,13.84,3.5,18.5,2.33,4.67,6.91,8.09,13.75,10.25,6.83,2.17,17.08,3.25,30.75,3.25,0,5.67-.67,10.67-2,15-1.34,4.34-3.84,8.34-7.5,12h-133.5Z"/>
    <path class="cls-1" d="M1719.97,773.88c-37.34,0-67.09-11.83-89.25-35.5-22.17-23.66-33.25-56.66-33.25-99,0-29,5.5-54.08,16.5-75.25,11-21.16,25.91-37.41,44.75-48.75,18.83-11.33,40.25-17,64.25-17,30,0,54.08,8.75,72.25,26.25,18.16,17.5,27.25,42.09,27.25,73.75,0,12.67-2.09,23.75-6.25,33.25-4.17,9.5-12.75,14.25-25.75,14.25h-108c1,26.34,7.08,45,18.25,56,11.16,11,25.75,16.5,43.75,16.5,11.33,0,21.83-1.75,31.5-5.25,9.66-3.5,18.66-8.41,27-14.75,3,2.67,5.41,6.75,7.25,12.25,1.83,5.5,2.75,10.09,2.75,13.75,0,5.34-3.75,11.92-11.25,19.75-7.5,7.84-18.17,14.75-32,20.75-13.84,6-30.42,9-49.75,9ZM1682.47,607.88h50.5c5.66,0,9.25-2.16,10.75-6.5,1.5-4.33,2.25-9.66,2.25-16,0-21.33-2.59-35.41-7.75-42.25-5.17-6.83-11.25-10.25-18.25-10.25-5.67,0-11.34,2.17-17,6.5-5.67,4.34-10.34,11.92-14,22.75-3.67,10.84-5.84,26.09-6.5,45.75Z"/>
    <path class="cls-1" d="M1953.46,774.38c-12,0-24.09-1.34-36.25-4-12.17-2.66-23.34-6.5-33.5-11.5-10.17-5-18.42-11.25-24.75-18.75-6.34-7.5-9.5-16.08-9.5-25.75,0-11.66,3.33-21.08,10-28.25,6.66-7.16,15.16-10.75,25.5-10.75,9.33,0,17.25,3,23.75,9s9.75,13.84,9.75,23.5c0,4.34-.67,8.09-2,11.25-1.34,3.17-3.34,6.59-6,10.25,3,3,8.33,5.17,16,6.5,7.66,1.34,15.16,2,22.5,2,11.66,0,20.66-2.16,27-6.5,6.33-4.33,9.5-9.66,9.5-16,0-10-5.34-18.58-16-25.75-10.67-7.16-22.84-14.41-36.5-21.75-12.34-6.66-24.59-13.75-36.75-21.25-12.17-7.5-22.34-16.91-30.5-28.25-8.17-11.33-12.25-25.66-12.25-43,0-22,9.16-40.16,27.5-54.5,18.33-14.33,44.33-21.5,78-21.5,23.33,0,42,2.92,56,8.75,14,5.84,24.16,13.17,30.5,22,6.33,8.84,9.5,18.09,9.5,27.75,0,10.34-3.25,18.59-9.75,24.75-6.5,6.17-14.42,9.25-23.75,9.25-8.34,0-15.67-2.58-22-7.75-6.34-5.16-9.5-11.91-9.5-20.25,0-4,.66-8.33,2-13,1.33-4.66,3.16-8.5,5.5-11.5-3.67-3-7.92-5.08-12.75-6.25-4.84-1.16-10.59-1.75-17.25-1.75-11,0-19.42,2.59-25.25,7.75-5.84,5.17-8.75,11.42-8.75,18.75,0,11.34,5.41,20.67,16.25,28,10.83,7.34,22.91,14.5,36.25,21.5,12.33,6.34,24.41,13.17,36.25,20.5,11.83,7.34,21.75,16.5,29.75,27.5s12,25.17,12,42.5c0,18.67-5.34,33.59-16,44.75-10.67,11.17-24.42,19.25-41.25,24.25-16.84,5-34.59,7.5-53.25,7.5Z"/>
  </g>
  <g>
    <path class="cls-1" d="M609.57,1222.01c-35.34,0-65.92-7.5-91.75-22.5-25.84-15-45.75-35.83-59.75-62.5-14-26.66-21-57.16-21-91.5,0-41,7-75.16,21-102.5,14-27.33,33.33-47.91,58-61.75,24.66-13.83,53-20.75,85-20.75,7.66,0,16.58.67,26.75,2,10.16,1.34,21.41,4.34,33.75,9,3.33-1.66,7.83-3.25,13.5-4.75,5.66-1.5,11.33-2.91,17-4.25,5.66-1.33,10.16-2,13.5-2,4.33,10.67,7.5,22.92,9.5,36.75,2,13.84,3.33,27.5,4,41,.66,13.5,1,25.25,1,35.25h-48.5c-3.34-21.66-11.67-38.25-25-49.75-13.34-11.5-29-17.25-47-17.25-13.34,0-25.34,3.67-36,11-10.67,7.34-19.09,20.09-25.25,38.25-6.17,18.17-9.25,43.75-9.25,76.75,0,35.34,2.91,63.25,8.75,83.75,5.83,20.5,14.33,35.17,25.5,44,11.16,8.84,24.75,13.25,40.75,13.25,18,0,31.16-4.33,39.5-13v-57c0-8.66-3.84-14.91-11.5-18.75-7.67-3.83-19.34-5.75-35-5.75,0-5.66,1.16-12.5,3.5-20.5,2.33-8,5.16-14,8.5-18h108c10,0,17.5,2.25,22.5,6.75s8.25,9.42,9.75,14.75c1.5,5.34,2.25,9.34,2.25,12,0,3.34-.84,6.34-2.5,9-5.34,0-10.42.25-15.25.75-4.84.5-9.09,1.59-12.75,3.25v57.5c0,7.34.58,12.5,1.75,15.5,1.16,3,2.41,5.34,3.75,7,1,1,1.83,2.09,2.5,3.25.66,1.17,1,3.09,1,5.75,0,6-5.34,12.59-16,19.75-10.67,7.17-25.09,13.34-43.25,18.5-18.17,5.16-38.59,7.75-61.25,7.75Z"/>
    <path class="cls-1" d="M775.07,1215.01c-3.67-3.66-6.5-7.66-8.5-12-2-4.33-3-9.33-3-15,9.66,0,16.58-2.08,20.75-6.25s6.25-11.25,6.25-21.25v-144.5c0-8.66-2.34-14.91-7-18.75-4.67-3.83-13.34-5.75-26-5.75v-22.5c8-4.66,17.5-8.75,28.5-12.25s21.83-6.33,32.5-8.5c10.66-2.16,19-3.25,25-3.25,7.66,0,13.25,2.67,16.75,8,3.5,5.34,5.25,16.84,5.25,34.5,3.66-7,9.08-13.91,16.25-20.75,7.16-6.83,15.25-12.41,24.25-16.75,9-4.33,18.33-6.5,28-6.5,15.66,0,26.83,4,33.5,12,6.66,8,10,18.34,10,31,0,14.34-3.67,26-11,35-7.34,9-17.5,13.5-30.5,13.5-11.34,0-20.34-3.25-27-9.75-6.67-6.5-10-13.91-10-22.25,0-5.33.5-9.5,1.5-12.5-5.34,1.34-10.5,3.09-15.5,5.25-5,2.17-10,5.59-15,10.25v150c0,7.67,1.16,13.84,3.5,18.5,2.33,4.67,6.91,8.09,13.75,10.25,6.83,2.17,17.08,3.25,30.75,3.25,0,5.67-.67,10.67-2,15-1.34,4.34-3.84,8.34-7.5,12h-133.5Z"/>
    <path class="cls-1" d="M1104.57,1219.51c-37.34,0-67.09-11.83-89.25-35.5-22.17-23.66-33.25-56.66-33.25-99,0-29,5.5-54.08,16.5-75.25,11-21.16,25.91-37.41,44.75-48.75,18.83-11.33,40.25-17,64.25-17,30,0,54.08,8.75,72.25,26.25,18.16,17.5,27.25,42.09,27.25,73.75,0,12.67-2.09,23.75-6.25,33.25-4.17,9.5-12.75,14.25-25.75,14.25h-108c1,26.34,7.08,45,18.25,56,11.16,11,25.75,16.5,43.75,16.5,11.33,0,21.83-1.75,31.5-5.25,9.66-3.5,18.66-8.41,27-14.75,3,2.67,5.41,6.75,7.25,12.25,1.83,5.5,2.75,10.09,2.75,13.75,0,5.34-3.75,11.92-11.25,19.75-7.5,7.84-18.17,14.75-32,20.75-13.84,6-30.42,9-49.75,9ZM1067.07,1053.51h50.5c5.66,0,9.25-2.16,10.75-6.5,1.5-4.33,2.25-9.66,2.25-16,0-21.33-2.59-35.41-7.75-42.25-5.17-6.83-11.25-10.25-18.25-10.25-5.67,0-11.34,2.17-17,6.5-5.67,4.34-10.34,11.92-14,22.75-3.67,10.84-5.84,26.09-6.5,45.75Z"/>
    <path class="cls-1" d="M1357.06,1219.51c-37.34,0-67.09-11.83-89.25-35.5-22.17-23.66-33.25-56.66-33.25-99,0-29,5.5-54.08,16.5-75.25,11-21.16,25.91-37.41,44.75-48.75,18.83-11.33,40.25-17,64.25-17,30,0,54.08,8.75,72.25,26.25,18.16,17.5,27.25,42.09,27.25,73.75,0,12.67-2.09,23.75-6.25,33.25-4.17,9.5-12.75,14.25-25.75,14.25h-108c1,26.34,7.08,45,18.25,56,11.16,11,25.75,16.5,43.75,16.5,11.33,0,21.83-1.75,31.5-5.25,9.66-3.5,18.66-8.41,27-14.75,3,2.67,5.41,6.75,7.25,12.25,1.83,5.5,2.75,10.09,2.75,13.75,0,5.34-3.75,11.92-11.25,19.75-7.5,7.84-18.17,14.75-32,20.75-13.84,6-30.42,9-49.75,9ZM1319.56,1053.51h50.5c5.66,0,9.25-2.16,10.75-6.5,1.5-4.33,2.25-9.66,2.25-16,0-21.33-2.59-35.41-7.75-42.25-5.17-6.83-11.25-10.25-18.25-10.25-5.67,0-11.34,2.17-17,6.5-5.67,4.34-10.34,11.92-14,22.75-3.67,10.84-5.84,26.09-6.5,45.75Z"/>
    <path class="cls-1" d="M1498.56,1215.01c-3.67-3.66-6.59-7.66-8.75-12-2.17-4.33-3.25-9.16-3.25-14.5,10,0,17.16-2.16,21.5-6.5s6.5-11.33,6.5-21v-146c0-8.66-2.42-15-7.25-19-4.84-4-13.59-6-26.25-6v-22.5c7.66-4.33,17.41-8.33,29.25-12,11.83-3.66,23.33-6.58,34.5-8.75,11.16-2.16,19.75-3.25,25.75-3.25,7,0,12.75,2.17,17.25,6.5,4.5,4.34,7.08,13.67,7.75,28,8.33-10.33,18.91-18.66,31.75-25,12.83-6.33,27.75-9.5,44.75-9.5,23.33,0,40.91,5.92,52.75,17.75,11.83,11.84,17.75,31.92,17.75,60.25v136.5c0,16.34,8,26,24,29l.5,14.5c-3.34,3.34-8.67,6.25-16,8.75-7.34,2.5-15.25,4.42-23.75,5.75s-16.42,2-23.75,2c-14.34,0-24.92-2.67-31.75-8-6.84-5.33-10.25-13.83-10.25-25.5v-156c0-13.66-3-23.16-9-28.5-6-5.33-13.34-8-22-8-13.67,0-25.17,5.5-34.5,16.5v152.5c0,9.67,2.08,16.67,6.25,21,4.16,4.34,11.25,6.5,21.25,6.5,0,10-3.84,18.84-11.5,26.5h-113.5Z"/>
    <path class="cls-1" d="M1892.06,1220.01c-12,0-24.09-1.34-36.25-4-12.17-2.66-23.34-6.5-33.5-11.5-10.17-5-18.42-11.25-24.75-18.75-6.34-7.5-9.5-16.08-9.5-25.75,0-11.66,3.33-21.08,10-28.25,6.66-7.16,15.16-10.75,25.5-10.75,9.33,0,17.25,3,23.75,9s9.75,13.84,9.75,23.5c0,4.34-.67,8.09-2,11.25-1.34,3.17-3.34,6.59-6,10.25,3,3,8.33,5.17,16,6.5,7.66,1.34,15.16,2,22.5,2,11.66,0,20.66-2.16,27-6.5,6.33-4.33,9.5-9.66,9.5-16,0-10-5.34-18.58-16-25.75-10.67-7.16-22.84-14.41-36.5-21.75-12.34-6.66-24.59-13.75-36.75-21.25-12.17-7.5-22.34-16.91-30.5-28.25-8.17-11.33-12.25-25.66-12.25-43,0-22,9.16-40.16,27.5-54.5,18.33-14.33,44.33-21.5,78-21.5,23.33,0,42,2.92,56,8.75,14,5.84,24.16,13.17,30.5,22,6.33,8.84,9.5,18.09,9.5,27.75,0,10.34-3.25,18.59-9.75,24.75-6.5,6.17-14.42,9.25-23.75,9.25-8.34,0-15.67-2.58-22-7.75-6.34-5.16-9.5-11.91-9.5-20.25,0-4,.66-8.33,2-13,1.33-4.66,3.16-8.5,5.5-11.5-3.67-3-7.92-5.08-12.75-6.25-4.84-1.16-10.59-1.75-17.25-1.75-11,0-19.42,2.59-25.25,7.75-5.84,5.17-8.75,11.42-8.75,18.75,0,11.34,5.41,20.67,16.25,28,10.83,7.34,22.91,14.5,36.25,21.5,12.33,6.34,24.41,13.17,36.25,20.5,11.83,7.34,21.75,16.5,29.75,27.5s12,25.17,12,42.5c0,18.67-5.34,33.59-16,44.75-10.67,11.17-24.42,19.25-41.25,24.25-16.84,5-34.59,7.5-53.25,7.5Z"/>
  </g>
  <g>
    <path class="cls-1" d="M746.51,22.99c-3.6-6.59-7.51-9.9-11.7-9.9,3,10.21,2.1,17.1-2.7,20.7-6.61,4.81-23.71,7.2-51.3,7.2-30.6,0-50.1,1.5-58.5,4.5-30.01,9.6-51.61,31.2-64.8,64.8-6.61,17.41-13.2,48.91-19.8,94.5-.3,3.33-.53,8.18-.68,14.54-55.06-27.91-118.29-41.87-189.67-41.87-96.6,0-165.59,32.71-206.99,98.1-29.4,47.4-44.1,97.8-44.1,151.19,0,33,6.3,62.41,18.9,88.2,33.59,49.2,90.59,73.8,170.99,73.8,31.79,0,67.79-3.9,108-11.7,18-.59,31.79-.9,41.4-.9,72.59,0,117.89,21.6,135.89,64.8,7.2,18,10.8,37.8,10.8,59.4,0,38.4-10.5,70.8-31.5,97.2-43.8,55.8-105,83.7-183.59,83.7-18.6,0-37.5-1.49-56.7-4.5-35.41-5.99-68.55-21.89-99.45-47.7-30.91-25.79-53.25-55.8-67.05-90-12.6-45-20.09-81.05-26.1-102.42-1.21-2.39-2.11-3.17-4.5-1.98-1.8,1.21-2.7,2.7-2.7,4.5-1.21,115.8-19.8,223.5-55.8,323.08,0,1.2,2.7,2.39,8.1,3.6,22.79-58.81,38.99-103.79,48.6-134.99,76.19,46.21,155.69,69.3,238.49,69.3,39.6,0,76.79-6,111.59-18,39.6-14.4,74.99-38.7,106.2-72.9,31.19-34.2,49.79-71.1,55.8-110.69,2.39-16.79,3.6-32.69,3.6-47.7,0-75.6-27-130.49-81-164.69-21.6-16.2-52.8-24.3-93.6-24.3-10.8,0-26.41.45-46.8,1.35-20.4.9-34.8,1.35-43.2,1.35h-27c-7.8,0-19.8.45-36,1.35s-28.21,1.35-36,1.35c-46.21,0-78.3-13.79-96.3-41.4-13.81-20.99-20.7-46.19-20.7-75.6s6.86-55.19,20.61-77.4c29.87-49.79,77.94-74.7,144.26-74.7,51.97,0,101.57,17.7,148.76,53.1,45.39,34.2,77.96,76.2,97.67,125.99h6.27v-93.6c-1.21-38.39-1.15-18.18.06-43.38,3-53.39,1.07-95.4,6.47-114.61,11.39-38.39,24.22-55.27,56.02-68.47,14.99-3,25.49-2.1,31.5,2.7,11.39,7.8,14.4,16.8,9,27-3.01,7.8-8.1,10.8-15.3,9-5.4-4.8-7.51-9.9-6.3-15.3-4.81,1.21-8.1,5.71-9.9,13.5,2.39,10.8,5.69,17.41,9.9,19.8,11.99,5.4,21.6,6,28.8,1.8,11.39-6.6,17.39-16.2,18-28.8-3.01-14.4-8.41-24.89-16.2-31.5,4.79-.59,13.79-.3,27,.9,11.99,1.21,21.29.9,27.9-.9,13.19-7.2,18.29-18,15.3-32.4ZM548.06,225.15c-.08-.04-.16-.08-.24-.13.55-1.41.71-1.65.24.13Z"/>
    <path class="cls-1" d="M386.97,434.84c10.8-.59,20.7-2.39,29.7-5.4,21.6-6.59,38.39-23.99,50.4-52.2,4.79-11.39,7.2-23.4,7.2-36,0-25.2-7.51-47.99-22.5-68.4-21.01-29.39-53.1-49.19-96.3-59.4-34.8-3-58.2,0-70.2,9l3.6,2.7c23.99-5.99,50.69-4.19,80.1,5.4,22.19,7.2,41.99,20.25,59.4,39.15,17.39,18.9,27,39.46,28.8,61.65,2.39,29.4-7.8,50.1-30.6,62.1-7.8,4.81-18,5.4-30.6,1.8-9.6-6.6-14.1-12.6-13.5-18l7.2-13.5c4.19-3.6,9.9-2.7,17.1,2.7,1.2,2.4,1.8,5.1,1.8,8.1s-1.21,5.4-3.6,7.2c5.2,0,8.77-.59,10.73-1.8,13.25-9.59,17.46-24.59,12.67-45-7.2-10.8-14.1-17.1-20.7-18.9-21.01-2.39-34.2-1.2-39.6,3.6-12.01,6.61-19.5,19.5-22.5,38.7,0,26.41,12.89,45,38.7,55.8-1.8,1.21-4.2,1.8-7.2,1.8s-5.71-.59-8.1-1.8c1.8-1.2,3-1.8,3.6-1.8-12.91-6.59-21.5-13.5-25.8-20.7-8.61-11.39-12.9-25.49-12.9-42.3,0-14.99,3.67-28.19,11.04-39.6,1.83-3,7.96-10.19,18.39-21.6,7.96-9,12.25-17.1,12.87-24.3,1.8-11.39-1.5-19.8-9.9-25.2-6-1.8-12.91-2.39-20.7-1.8-7.8,1.21-15,6-21.6,14.4-1.8,2.4-6.3,10.21-13.5,23.4-2.4,15.61-3.6,29.4-3.6,41.4,0,36,10.19,63,30.6,81l-1.8,1.8c-12.6-8.32-28.21-27.08-46.8-56.25-16.8-26.18-33.61-43.16-50.4-50.89-8.41-3.57-17.41-5.36-27-5.36-18.6,0-32.71,5.71-42.3,17.1-13.2,15.61-17.1,33.61-11.7,54,6.6,18.6,21.6,28.21,45,28.8,10.19,0,20.99-5.23,32.4-15.69l5.4-10.15c1.8-4.3,2.1-7.68.9-10.15-8.41,7.2-16.8,11.11-25.2,11.7-4.81,0-12.01-4.5-21.6-13.5-3.6-11.99-1.66-22.5,5.85-31.5,7.5-9,17.24-12.6,29.25-10.8,20.39,6.61,39.6,24,57.6,52.2,21.6,32.4,38.99,53.25,52.2,62.55,13.19,9.31,29.09,13.95,47.7,13.95Z"/>
    <path class="cls-1" d="M453.56,822.73c-21.6-5.4-36-20.99-43.2-46.8-6-22.19-11.7-44.1-17.1-65.7-28.8-64.19-67.2-95.69-115.19-94.5-46.8,1.21-79.8,21.91-99,62.1-6,13.81-9,28.8-9,45,0,28.21,8.1,52.51,24.3,72.9l6.3,1.8c1.8-2.39,2.39-4.5,1.8-6.3-14.4-23.4-21.6-47.09-21.6-71.1,0-20.99,6.6-38.7,19.8-53.1,13.19-14.4,30.29-20.39,51.3-18,13.79,4.81,23.69,12.3,29.7,22.5,4.19,5.4,4.79,15,1.8,28.8-4.81,12.01-15.9,19.21-33.3,21.6-12.6.6-23.4-7.2-32.4-23.4-1.21,6-1.8,11.11-1.8,15.3,2.39,19.8,12.6,32.1,30.6,36.9,5.4,1.21,10.8,1.8,16.2,1.8,16.79,0,31.5-6.3,44.1-18.9,7.79-11.39,11.7-23.69,11.7-36.9,0-6.59-1.07-12.89-3.19-18.9-2.14-3-4.39-6.44-6.75-10.35-2.38-3.9-2.97-7.05-1.76-9.45,12.6,18,18.9,32.71,18.9,44.1,0,13.81-5.1,29.4-15.3,46.8-1.8,3.01-9,11.11-21.6,24.3-9.6,10.21-14.4,19.21-14.4,27,0,3.6.9,7.2,2.7,10.8,4.79,13.81,12.6,18.9,23.4,15.3,13.79-1.8,27.9-14.09,42.3-36.9,5.4-14.4,8.1-29.09,8.1-44.1,0-36-14.1-68.99-42.3-99,1.8-1.2,3-1.8,3.6-1.8,16.2,15.61,30.6,40.5,43.2,74.7,14.4,39.01,26.39,65.11,36,78.3,18,25.2,40.19,37.8,66.6,37.8,4.19,0,8.39-.3,12.6-.9,22.19-5.99,36.59-17.1,43.2-33.3,3-10.19,2.1-24.89-2.7-44.1-6.61-9-28.21-23.99-64.8-45-27.6-16.2-41.4-36.59-41.4-61.2-.6-10.8,6.6-21.29,21.6-31.5h17.1c8.4,6.61,11.7,13.81,9.9,21.6-9.6,10.21-19.21,12.91-28.8,8.1-1.21,3.01-.6,7.51,1.79,13.5,2.95,7.8,10.67,12.3,23.16,13.5,1.77,1.21,4.74.9,8.9-.9,2.97-1.2,5.05-.3,6.23,2.7,8.31,12.6,17.23,18.31,26.73,17.1,8.3.6,14.84-3.9,19.59-13.5v-6.3c0-5.4,4.64-9.59,13.95-12.6,9.29-3,14.54-7.49,15.75-13.5,4.19-5.4,4.79-14.69,1.8-27.9-6,7.8-12.6,11.7-19.8,11.7-6.61,0-15.9-4.95-27.9-14.85-12.01-9.9-20.11-15.75-24.3-17.55-16.2-3.6-30.91-2.39-44.1,3.6-24.61,10.8-35.7,29.4-33.3,55.8,1.2,20.4,12.6,37.5,34.2,51.3,19.19,9.6,38.39,19.21,57.6,28.8l-.9,1.8c-4.81-.59-7.2-1.2-7.2-1.8-15.61,0-27.31,6.9-35.1,20.7-4.81,11.4-2.7,21.91,6.3,31.5,3-14.4,9.9-21.6,20.7-21.6,8.4,0,13.79,3.91,16.2,11.7,3,8.41,3,16.8,0,25.2-7.2,13.81-17.7,18.9-31.5,15.3ZM288.87,639.13l-1.8-1.8h6.3c-2.4,0-3.91.6-4.5,1.8Z"/>
    <path class="cls-1" d="M220.48,418.65c-16.8-1.8-25.51-2.7-26.1-2.7l-1.8.9c27,17.41,58.5,26.1,94.5,26.1,15.59,0,30.6-1.8,45-5.4,1.2-5.4-1.8-8.69-9-9.9-9.6-.59-15.61-2.39-18-5.4-9.6-5.4-18-13.79-25.2-25.2-2.4-4.19-7.2-14.4-14.4-30.6-4.81,9-7.8,15.9-9,20.7,1.8,7.2,2.39,12.91,1.8,17.1-15-6.6-26.1-11.7-33.3-15.3,2.39,7.2,9.59,16.51,21.6,27.9-7.2,2.4-15.9,3.01-26.1,1.8Z"/>
  </g>
  <path class="cls-1" d="M566.96,336.81c10.15-18.39,56.83-49.69,79.77-59.05,1.26-.51,2.63-.4,3.75.26,8.3,4.92,38.67,34.39,57.44,26.01,5.02-2.24,16.69-15.46.19-35.41-.11-.13-.22-.25-.34-.37-2.21-2.14-23.92-22.38-45.11-12.28-2.83,1.35-5.89-.53-6.17-3.74-.96-11-5.22-31.17-23.19-38.84,0,0-27-13.89-39.33,7.75-12.33,21.64,33.56,47.75,44.16,51.8,7.8,2.98-60.5,21.32-79.15,59.52-2.82,5.77,4.89,9.97,7.99,4.36Z"/>
  <path class="cls-1" d="M98.71,378.87c-1.38-20.96-7.45-44.29-24.24-62.51-.92-1-2.21-1.48-3.51-1.35-9.6.93-49.61,14.72-63.05-.84-3.59-4.16-8.55-21.08,14.87-32.14.15-.07.31-.14.47-.19,2.91-1,31.16-10.11,46.06,8.03,1.99,2.42,5.56,2.02,7.17-.77,5.54-9.55,17.96-26,37.49-25.32,0,0,30.34-1.11,32.31,23.72,1.97,24.83-50.66,28.98-61.97,28.14-8.33-.62,22.81,20.16,23.48,62.67.1,6.42-8.66,6.95-9.08.55Z"/>
  <path class="cls-1" d="M87.19,590.62c10.67-1.25,58.85-14.76,52.49-38.12-6.36-23.36-34.37-16.8-34.37-16.8-18.28,2.89-26.83,20.85-30.24,30.98-1,2.96-4.24,3.99-6.53,2.04-17.17-14.63-41.77-.81-44.29.67-.14.08-.27.17-.4.27-19.76,14.81-12.06,30.08-7.96,33.4,15.33,12.43,50.02-8,58.78-10.63,1.18-.35,2.47-.13,3.51.66,18.94,14.36,28.83,35.54,33.94,55.32,1.56,6.04,9.61,3.94,8.34-2.18-8.37-40.49-41.12-54.69-33.26-55.61Z"/>
</svg>